<?xml version="1.0" encoding="UTF-8" standalone="no"?>
<svg xmlns="http://www.w3.org/2000/svg"
     xmlns:svg="http://www.w3.org/2000/svg"
     version="1.1"
     viewBox="100 1200 950.1 250">
<defs>
  <linearGradient id="logoGradient"
                  x1="0%" y1="0%"
                  x2="100%" y2="0%">
    <stop offset="0%" stop-color="#05df72"/>
    <stop offset="100%" stop-color="#00c950"/>
  </linearGradient>
</defs>
  <path id="Small-Logo"
        fill="url(#logoGradient)" stroke-width="1" fill-rule="evenodd"
        d="M 800.00,1200.00
           C 800.00,1200.00 800.00,1450.00 800.00,1450.00
             800.00,1450.00 900.00,1450.00 950.00,1450.00
             1000.00,1450.00 1050.00,1450.00 1050.00,1375.00
             1050.00,1350.00 1037.50,1325.00 1012.50,1325.00
             1037.50,1325.00 1050.10,1300.93 1050.10,1275.93
             1050.10,1201.61 1000.00,1200.00 950.00,1200.00
             900.00,1200.00 800.00,1200.00 800.00,1200.00 Z
           M 850.00,1250.00
           C 850.00,1250.00 900.00,1250.00 950.00,1250.00
             1000.00,1250.00 1000.00,1262.50 1000.00,1275.00
             1000.00,1287.50 1000.00,1293.75 950.00,1293.75
             900.00,1293.75 850.00,1293.75 850.00,1293.75
             850.00,1293.75 850.00,1250.00 850.00,1250.00 Z
           M 850.00,1400.00
           C 850.00,1400.00 900.00,1400.00 950.00,1400.00
             1000.00,1400.00 1000.00,1387.50 1000.00,1375.00
             1000.00,1362.50 1000.00,1356.25 950.00,1356.25
             900.00,1356.25 850.00,1356.25 850.00,1356.25
             850.00,1356.25 850.10,1400.93 850.10,1400.93M 500.00,1200.00
           C 500.00,1200.00 500.00,1450.00 500.00,1450.00
             500.00,1450.00 650.00,1450.00 650.00,1450.00
             650.00,1450.00 750.00,1450.00 750.00,1325.00
             750.00,1200.00 650.00,1200.00 650.00,1200.00
             650.00,1200.00 500.00,1200.00 500.00,1200.00 Z
           M 550.00,1250.00
           C 550.00,1250.00 550.00,1400.00 550.00,1400.00
             550.00,1400.00 650.00,1400.00 650.00,1400.00
             650.00,1400.00 700.00,1400.00 700.00,1325.00
             700.00,1250.00 650.00,1250.00 650.00,1250.00
             650.00,1250.00 550.00,1250.00 550.00,1250.00 Z
           M 400.00,1200.00
           C 400.00,1200.00 400.00,1450.00 400.00,1450.00
             400.00,1450.00 450.00,1450.00 450.00,1450.00
             450.00,1450.00 450.00,1200.00 450.00,1200.00
             450.00,1200.00 400.00,1200.00 400.00,1200.00 Z
           M 350.00,1200.00
           C 350.00,1200.00 100.00,1200.00 100.00,1200.00
             100.00,1200.00 100.00,1250.00 100.00,1250.00
             100.00,1250.00 200.00,1250.00 200.00,1250.00
             200.00,1250.00 200.00,1450.00 200.00,1450.00
             200.00,1450.00 250.00,1450.00 250.00,1450.00
             250.00,1450.00 250.00,1250.00 250.00,1250.00
             250.00,1250.00 350.00,1250.00 350.00,1250.00
             350.00,1250.00 350.00,1200.00 350.00,1200.00 Z" />
</svg>
